<?xml version="1.0" standalone="no"?>
<!DOCTYPE svg PUBLIC "-//W3C//DTD SVG 20010904//EN"
 "http://www.w3.org/TR/2001/REC-SVG-20010904/DTD/svg10.dtd">
<svg version="1.0" xmlns="http://www.w3.org/2000/svg"
 width="225.000000pt" height="225.000000pt" viewBox="0 0 225.000000 225.000000"
 preserveAspectRatio="xMidYMid meet">
<metadata>
Created by potrace 1.11, written by Peter Selinger 2001-2013
</metadata>
<g transform="translate(0.000000,225.000000) scale(0.100000,-0.100000)"
fill="#000000" stroke="none">
<path d="M927 2235 c-261 -49 -510 -197 -675 -401 -91 -112 -182 -290 -219
-429 -24 -91 -27 -116 -27 -280 0 -164 3 -189 27 -280 60 -223 206 -450 382
-593 112 -90 290 -181 430 -219 91 -24 116 -27 280 -27 164 0 189 3 280 27
141 39 318 129 430 220 178 145 322 369 382 592 24 91 27 116 27 280 0 164 -3
189 -27 280 -106 395 -421 709 -814 812 -125 32 -354 41 -476 18z m-7 -710 c0
-102 2 -185 4 -185 3 0 26 13 53 30 52 32 147 60 203 60 93 0 203 -56 259
-132 59 -80 64 -112 69 -450 l4 -308 -90 0 -90 0 -4 288 c-4 267 -5 290 -25
334 -31 68 -70 90 -155 86 -81 -4 -137 -38 -181 -109 -36 -58 -47 -154 -47
-411 l0 -188 -90 0 -90 0 0 585 0 585 90 0 90 0 0 -185z"/>
</g>
</svg>
